<?xml version="1.0" encoding="UTF-8" standalone="no"?>
<svg xmlns="http://www.w3.org/2000/svg" width="1024" height="1024" viewBox="0 0 1024 1024">
  <defs>
    <radialGradient id="bg-gradient" cx="50%" cy="50%" r="70%" fx="50%" fy="50%">
      <stop offset="0%" stop-color="#0a1a2d" stop-opacity="1"/>
      <stop offset="70%" stop-color="#061224" stop-opacity="1"/>
      <stop offset="100%" stop-color="#030917" stop-opacity="1"/>
    </radialGradient>
    
    <filter id="noise" x="0%" y="0%" width="100%" height="100%">
      <feTurbulence type="fractalNoise" baseFrequency="0.7" numOctaves="3" stitchTiles="stitch" result="noise"/>
      <feColorMatrix type="matrix" values="0 0 0 0 0, 0 0 0 0 0, 0 0 0 0 0, 0 0 0 0.03 0" in="noise" result="noiseFade"/>
    </filter>
    
    <filter id="glow" x="-20%" y="-20%" width="140%" height="140%">
      <feGaussianBlur stdDeviation="10" result="blur"/>
      <feComposite in="SourceGraphic" in2="blur" operator="over"/>
    </filter>
  </defs>
  
  <!-- Background -->
  <rect x="0" y="0" width="1024" height="1024" fill="url(#bg-gradient)"/>
  
  <!-- Noise overlay -->
  <rect x="0" y="0" width="1024" height="1024" filter="url(#noise)" opacity="0.3"/>
  
  <!-- Distant stars (small dots) -->
  <g>
    <!-- This would be many small circles with random positions in a real implementation -->
    <!-- For SVG size efficiency, using a few representative stars -->
    <circle cx="100" cy="200" r="1" fill="white" opacity="0.7"/>
    <circle cx="300" cy="150" r="1.2" fill="white" opacity="0.6"/>
    <circle cx="500" cy="80" r="0.8" fill="white" opacity="0.8"/>
    <circle cx="700" cy="300" r="1" fill="white" opacity="0.6"/>
    <circle cx="900" cy="200" r="1.1" fill="white" opacity="0.7"/>
    <circle cx="150" cy="450" r="0.9" fill="white" opacity="0.8"/>
    <circle cx="350" cy="550" r="1" fill="white" opacity="0.6"/>
    <circle cx="420" cy="620" r="1.2" fill="white" opacity="0.7"/>
    <circle cx="750" cy="580" r="0.8" fill="white" opacity="0.8"/>
    <circle cx="850" cy="700" r="1" fill="white" opacity="0.7"/>
    <circle cx="250" cy="800" r="1.1" fill="white" opacity="0.6"/>
    <circle cx="450" cy="900" r="0.9" fill="white" opacity="0.8"/>
    <circle cx="650" cy="850" r="1" fill="white" opacity="0.7"/>
    <circle cx="850" cy="950" r="1.2" fill="white" opacity="0.6"/>
  </g>
  
  <!-- Glowing nebula elements -->
  <g opacity="0.2" filter="url(#glow)">
    <ellipse cx="300" cy="400" rx="200" ry="150" fill="#0066cc" opacity="0.2"/>
    <ellipse cx="700" cy="600" rx="250" ry="180" fill="#3a3aff" opacity="0.15"/>
    <ellipse cx="500" cy="800" rx="180" ry="120" fill="#5050ff" opacity="0.1"/>
  </g>
</svg>
